Patient4_TMGait_0pt4_01_left_02_EMG.mot
version=1
nRows=20
nColumns=33
inDegrees=no
endheader
time	1LAddLong	2LGlutMax	3LGlutMed	4LIliopsoas	5LSemiMemb	6LBicFemLong	7LRecFem	8LVastMed	9LVastLat	10LGasMed	11LTibAnt	12lTibPost	13LPeroneusLong	14LSol	15LExtDigLong	16LFlexDigLong	17RAddLong	18RGlutMax	19RGlutMed	20RIliopsoas	21RSemiMemb	22RBicFemLong	23RRecFem	24RVastMed	25RVastLat	26RGasMed	27RTibAnt	28RTibPost	29RPeroneusLong	30RSol	31RExtDigLong	32RFlexDigLong
2.33	-0.002289	0.028839	0.20691	0.002594	0.023041	0.031128	0.013428	-0.001831	-0.023499	-0.014954	-0.010986	-0.011139	-0.010834	-0.007172	0.099945	-0.00061	0.030518	0.097961	-0.16907	0.18387	-0.052643	-0.052032	0.2655	0.15045	0.017548	0.005188	-0.40054	-0.003967	0.14557	0.057678	-0.000305	-0.010529
2.331	0.005798	0.041809	0.22781	-0.009766	-0.041199	-0.13245	0.017853	0.003357	-0.029602	0.008545	-0.017242	0.015564	0.080872	-0.028381	0.07843	-0.001831	0.018005	0.17456	-0.05661	0.19058	-0.042419	-0.071411	0.086975	0.033875	0.008087	0.002441	-0.43579	-0.003357	0.14343	0.10605	-0.00061	-0.010681
2.332	-0.003815	0.032501	0.26764	0.006714	0.037537	-0.21957	0.006104	0.013275	-0.04303	0.008392	-0.031433	0.010376	0.064697	0.006409	0.20142	-0.009766	-0.008545	0.17899	0.03067	0.050659	0.009155	-0.086365	0.10864	0.007172	-0.017853	0.003815	-0.15274	-0.006409	0.096741	0.083923	-0.002289	-0.007172
2.333	-0.001678	0.027618	0.23743	-0.001526	0.046539	-0.11276	0.010529	0.011597	-0.033875	0.038605	0.07843	0.014038	-0.13397	0.003815	0.15396	-0.005341	-0.012817	0.25131	-0.092316	0.00885	0.051117	-0.07782	0.06546	-0.028992	0.010834	0.004578	0.26566	-0.00412	0.036011	0.036621	-0.00061	-0.004883
2.334	-0.008392	0.053711	0.23163	0.010071	0.024567	-0.063629	-0.023346	0.008545	0.007019	0.036011	0.06134	0.0177	-0.080566	-0.016022	-0.008545	-0.00412	-0.010834	0.28214	-0.19608	-0.019379	0.28351	-0.051575	0.16586	-0.074615	-0.11887	0.001221	0.31845	-0.002747	-0.026245	0.063171	-0.00061	-0.00885
2.335	-0.007172	0.055237	0.24994	0.008087	-0.013275	0.029755	-0.044556	0.009766	0.001831	-0.005798	0.06485	0.015869	0.07782	0.001678	-0.039978	0.001068	-0.012817	0.30441	-0.008545	-0.030365	0.12924	-0.044098	0.011902	-0.12741	-0.018311	-0.001984	0.25971	-0.002289	-0.055084	0.076294	-0.000458	-0.011749
2.336	-0.006866	0.065002	0.2182	0.005188	-0.067444	0.01358	-0.065155	-0.00061	-0.006561	0.000305	-0.048218	0.008545	0.040588	0.027618	0.052185	-0.00824	0.016937	0.30426	-0.26077	0.000916	0.10086	-0.070496	-0.32913	-0.20386	0.12238	0.003204	0.17212	-0.004272	0.012817	0.07309	-0.001678	-0.00885
2.337	0.001831	0.063324	0.1355	0.006256	-0.1384	0.018311	-0.088806	0.00885	0.001678	0.016785	-0.090485	0.005341	-0.076752	0.014801	0.033417	-0.002289	0.046997	0.36529	-0.10605	-0.088959	0.1236	-0.10147	-0.30045	-0.26901	0.37521	-0.000153	-0.1442	-0.003967	-0.046539	0.063324	0.002747	-0.01236
2.338	-0.006714	0.11231	0.19226	0.000458	-0.13153	0.14511	-0.11566	0.00473	-0.001831	0.045929	-0.086212	0.007935	-0.056	-0.014648	-0.050507	-0.003357	0.052643	0.35126	-0.059814	-0.12543	0.15045	-0.13443	-0.08316	-0.13168	0.34576	-0.00351	-0.24841	-0.001984	-0.058594	0.024719	-0.002594	-0.014648
2.339	-0.009766	0.14557	0.37323	0.009155	0.011444	0.16113	-0.10101	0.012054	0.004425	0.046234	-0.037537	0.00473	-0.009766	0.032654	-0.1886	-0.007629	0.048218	0.37613	-0.31448	-0.09964	0.14084	-0.11658	0.087891	-0.10971	0.11795	-0.000458	-0.041962	0.002136	-0.018768	-0.033875	0.014343	-0.009155
2.34	-0.003357	0.13534	0.31952	0.007629	0.070343	-0.1857	-0.13016	0.009918	0.010223	0.027008	-0.052643	-0.002136	0.017242	0.082703	-0.17929	-0.008698	0.007935	0.41473	-0.85144	-0.078125	0.053864	-0.10712	0.078583	-0.092163	-0.039978	0.000305	0.15778	-0.002289	0.037231	-0.094757	-0.00061	-0.010376
2.341	0.013275	0.094452	0.34882	-0.001678	0.10819	-0.32761	-0.14511	0.011444	0.011749	0.031281	0.009918	-0.014191	-0.001068	0.067749	-0.10605	-0.002594	-0.021515	0.39978	-0.99472	-0.01709	0.11154	-0.097046	-0.029449	0.029907	0.015564	-0.000458	0.24399	-0.003662	0.045624	-0.085144	-0.000153	-0.013885
2.342	0.011597	0.1207	0.3804	-0.005493	0.10757	-0.29495	-0.13733	0.002747	0.007172	0.032349	-0.006409	0.010834	-0.055084	0.037231	0.052643	-0.003204	0.005188	0.47684	-0.7692	0.1004	0.01297	-0.088348	-0.088959	0.11353	0.093231	0.001678	0.14954	-0.00061	0.063477	-0.030212	-0.000916	-0.023193
2.343	0.013123	0.067596	0.37872	0.001068	0.070496	-0.086517	-0.13901	0.011597	-0.014038	-0.00946	-0.067291	-0.002441	0.022125	0.054626	0.345	0.002289	-0.002441	0.45883	0.59647	0.18265	0.023956	-0.058594	-0.093079	0.24414	0.11902	-0.001831	0.17059	-0.002289	0.007019	-0.040894	-0.000305	-0.018158
2.344	0.009613	0.073547	0.34134	-0.018921	0.050201	-0.11963	-0.1828	0.009613	-0.027008	-0.012817	0.019073	-0.00885	0.041351	0.072632	0.17197	0.000916	0.016785	0.37506	0.40131	0.19791	0.1207	-0.092468	0.040436	0.082092	-0.096893	-0.002136	0.19028	-0.00351	-0.030823	0.007172	-0.000458	-0.017395
2.345	0.009766	0.065765	0.3865	-0.007477	0.02594	-0.17044	-0.21652	0.001984	-0.035858	0.005951	0.17319	0.006714	0.000916	-0.027313	0.11536	0.009308	0.061188	0.27069	-0.13596	0.12634	0.1358	-0.096283	0.24674	-0.32242	-0.25299	-0.000153	0.1416	-0.005341	0.26733	0.002441	0.002289	-0.013733
2.346	0.010529	0.077972	0.39261	0.002747	0.0383	-0.12054	-0.27679	0.00946	0.011902	0.005341	0.13657	0.003967	-0.010681	0.00946	0.13519	-0.007172	0.063629	0.44861	0.19409	-0.009308	0.055847	-0.043945	0.2066	-0.33737	-0.15991	0	0.086517	-0.002747	0.78278	0.018463	-0.00061	-0.010834
2.347	0.003204	0.089264	0.42511	-0.000458	0.031586	0.003204	-0.26215	-0.001068	0.082092	-0.024261	-0.058289	-0.006256	0.067749	0.009308	-0.11261	-0.010986	0.052185	0.56915	-0.31265	-0.034637	0.088806	-0.034637	0.10941	-0.18249	-0.060425	-0.000916	0.051727	0.003357	0.28686	-0.012054	-0.00061	-0.004883
2.348	0.006561	0.097504	0.3923	0.002747	0.017242	0.13458	-0.26382	-0.002899	0.065308	-0.027618	-0.14328	0.014648	0.089264	-0.038452	-0.19104	0.002289	0.083313	0.62393	0.032654	-0.030975	0.42908	-0.10468	0.067139	-0.16174	-0.033264	-0.000153	0.027161	-0.001373	-0.11337	-0.019073	-0.002289	-0.001831
2.349	0.012665	0.12299	0.38513	0.01358	0.007935	0.023499	-0.29526	-0.00061	0.067596	0.019684	-0.12787	0.007935	0.065918	0.028381	0.090332	0.000763	0.086975	0.6221	-0.38406	0.019836	0.48492	-0.13184	0.14755	-0.13138	0.024719	-0.001678	0.037384	-0.001526	-0.33127	-0.023804	-0.000916	0.004883
